<svg xmlns="http://www.w3.org/2000/svg" viewBox="0 0 465.56 1087.2"><title>Ubuntu Geek</title><defs><linearGradient id="b" y2="383.93" gradientUnits="userSpaceOnUse" x2="306.19" gradientTransform="matrix(-1.2134 0 0 1.1377 431.31 278.08)" y1="368.52" x1="330.02"><stop stop-color="#d39f86" offset="0"/><stop stop-color="#d39f86" stop-opacity="0" offset="1"/></linearGradient><linearGradient id="a" y2="383.93" gradientUnits="userSpaceOnUse" x2="306.19" gradientTransform="matrix(1.2134 0 0 1.1377 319.38 281.24)" y1="368.52" x1="330.02"><stop stop-color="#d39f86" offset="0"/><stop stop-color="#d39f86" stop-opacity="0" offset="1"/></linearGradient><filter id="c" width="1.16" y="-1.369" x="-.08" height="3.738" color-interpolation-filters="sRGB"><feGaussianBlur stdDeviation="23.05"/></filter></defs><path d="M261.93 472.158l83.212 27.663c47.934 15.936 70.62 68.72 65.23 110.66-3.582 27.87-37.42 65.352-37.42 65.352l-57.12-130.653 11.04 134.368-169.933-.715.354-7.518 15.99-130.128-60.987 128.052s-24.786-25.54-27-44.12c-5.277-44.286-8.276-107.54 56.05-126.017C195.115 483.66 248.2 470.06 261.93 472.157" fill="#f60"/><path d="M1.348 0L.383-8.834c2.078-.12 8.56-.745 10.203-1.943 8.456-6.16 7.54-28.655 7.54-30.6 0 0-49.548-.3-54.027-.033 0 .625 5.4 30.397 14.112 31.59 7.534 1.03 9.553.943 9.553.943l-.718 8.673z" transform="matrix(2.9145 0 0 -6.2393 263.18 431.148)" stroke-opacity=".992" fill-opacity=".992" stroke="#e49d71" stroke-width=".26" fill="#ecc8b2"/><path d="M246.2 477.468c10.276-.35 21.312-4.226 20.708-15.657l4.293 7.83 9.345 17.425 15.433 6.216 42.145 29.645-164.28 3.537 23.635-38.807 15.886-.085 6.06-15.405 5.557-10.354c2.88 11.752 9.744 15.255 21.214 15.658z" fill="#f60"/><path d="M122.61 261.018s-3.613-21.843-14.45-20.245c-10.838 1.598-19.87 7.725-16.256 23.44 3.612 15.717 3.612 30.634 10.236 34.363 6.623 3.73 18.063 9.057 20.772-6.926 2.71-15.983-.3-30.633-.3-30.633zM371.66 260.958s3.613-21.843 14.45-20.245c10.838 1.598 19.87 7.725 16.256 23.44-3.612 15.717-3.612 30.634-10.236 34.363-6.623 3.73-18.063 9.057-20.772-6.926-2.71-15.983.3-30.633.3-30.633z" stroke="#e49d71" fill-opacity=".992" stroke-opacity=".992" fill="#ecc8b2"/><path d="M383.28 256.798c0 24.65-6.115 53.345-11.34 82.226-2.465 13.615-6.154 24.966-9.355 36.39-4.03 14.38-7.995 29.458-20.182 36.56-28.753 16.754-35.226 16.996-45.595 20.732-16.747 6.034-27.53 11.875-49.91 12.61-15.817.52-32.28-4.925-48.64-13.498-13.263-6.95-27.945-10.754-45.247-22.072-19.87-12.998-24.65-21.043-28.592-42.368-2.184-11.814-4.99-24.458-6.32-38.483-2.247-23.683-6.504-47.737-6.513-71.723-.012-32.526-9.38-69.992-.46-97.143 21.197-64.525 80-95.35 133.99-95.35 53.658 0 116.04 27.162 139.16 91.182 9.436 26.133 4.235 70.624-1.017 96.743" stroke-opacity=".992" fill-rule="evenodd" fill-opacity=".992" stroke="#e49d71" stroke-width="1.136" fill="#ecc8b2"/><path d="M342.75 281.24c11.622 14.382-8.1 25.198-23.37 25.198 0 0 26.76-19.67 23.37-25.198z" opacity=".991" fill="url(#a)" transform="translate(-135.54 -21.972)"/><path d="M407.94 278.08c-11.622 14.382 8.1 25.198 23.37 25.198 0 0-26.76-19.67-23.37-25.198z" opacity=".991" fill="url(#b)" transform="translate(-135.54 -21.972)"/><path d="M303.52 209.068c15.307-3.578 20.926 1.358 25.144 8.1 1.725 1.618 1.004 4.362 4.345 2.446 3.45-4.588-3.13-9.703-6.225-12.117a26.732 26.732 0 0 0-7.334-4.028 26.283 26.283 0 0 0-4.94-1.194c-4.407-.623-8.728-.105-12.543 1.075a37.864 37.864 0 0 0-8.555 3.915c-3.563 5.132-1.74 6.576 10.108 1.804z" opacity=".991" fill-rule="evenodd" fill="#2b0000"/><path d="M280.33 359.078s-23.26 33.287-72.116 5.223c0 0 42.865 60.7 72.116-5.222" fill="#2b0000"/><path d="M89.18 128.228c.69-12.148 5.51-22.195 9.747-28.842.215-3.77.353-5.944.353-5.944l-5.05-4.18c6.313-19.48 22.722-12.525 22.722-12.525-2.524-50.095 75.723-65.402 75.723-65.402 100.57-46.97 163.2 67.254 212.04 66.795-3.786 16.7-34.078 32.01-34.078 32.01 13.884 15.305 47.96 8.348 47.96 8.348-10.878 11.44-14.04 20.59-27.962 26.952 4.584 6.4 6.935 14.585 7.77 20.112 6.55 12.003-1.994 56.827-5.323 74.918l-13.114.63c-2.172-8.78-1.457-21.09-5.826-29.103-2.454-4.5-13.744-26.455-15.55-33.175-3.693-13.734.152-11.873-4.18-19.472-112.89 47.67-213.05-21.38-213.05-21.38-1.732 24.5.57 31.753-4.17 46.09-2.997 9.065-13.9 26.76-16.734 33.292-7.88 18.155-5.67 24.525-5.67 24.525l-16.257 1.21c-2.242-20.375-2.747-56.078-2.057-84.03l-7.29 5.35" fill="#1a1a1a"/><path d="M256.66 317.548c-2.766 4.965-10.288 3.483-14.69 1.954-2.392-.827-4.494-2.418-6.092-4.344-1.774-2.135-1.098-5.218-2.457-7.554-.595-1.03-1.868-1.22-2.778-.48-7.65 6.238 4.105 15.928 9.676 17.734 6.25 2.027 15.66.674 17.224-6.9.108-.505-.593-.924-.883-.41" fill="#2b0000"/><path d="M290.77 257.108c.402 11.24 11.474 22.428 22.226 22.045 10.757-.384 19.148-9.8 18.75-21.038-.4-11.237-11.475-22.424-22.23-22.037-10.75.383-19.142 9.792-18.747 21.03" fill="#1a1a1a"/><path d="M304.43 269.768c1.557 3.415 6.506 4.5 11.044 2.428 4.546-2.076 6.955-6.532 5.398-9.944-1.553-3.41-6.51-4.495-11.04-2.416-4.542 2.07-6.97 6.513-5.402 9.932" fill="#f7f5ec"/><path d="M164.56 254.978c.398 11.233 11.473 22.42 22.225 22.04 10.754-.383 19.148-9.803 18.75-21.04-.395-11.238-11.474-22.417-22.226-22.04-10.75.382-19.15 9.8-18.75 21.04" fill="#1a1a1a"/><path d="M178.12 269.598c2.343 2.93 7.41 2.765 11.303-.36 3.89-3.13 5.143-8.04 2.79-10.962-2.35-2.923-7.417-2.757-11.298.375-3.887 3.122-5.153 8.024-2.795 10.948" fill="#f7f5ec"/><path d="M189.36 209.458c-15.307-3.578-20.926 1.358-25.144 8.1-1.725 1.618-1.004 4.362-4.345 2.446-3.45-4.588 3.13-9.703 6.225-12.117a26.732 26.732 0 0 1 7.334-4.028c1.583-.55 3.24-.953 4.94-1.194 4.407-.623 8.728-.105 12.543 1.075a37.864 37.864 0 0 1 8.555 3.915c3.563 5.132 1.742 6.576-10.107 1.804z" opacity=".991" fill-rule="evenodd" fill="#2b0000"/><path d="M347.46 266.858c-2.94 18.037-24.33 18.872-38.17 20.132-13.843 1.258-38.59 3.777-47.818-24.747-9.227-28.523 21.843-28.523 21.843-28.523 29.358-1.676 51.143-2.096 60.79 0 9.644 2.1 6.29 15.098 3.355 33.137zm-121.8-4.615c-9.226 28.525-33.973 26.006-47.813 24.747-13.842-1.26-35.234-2.095-38.17-20.132-2.936-18.04-6.293-31.038 3.356-33.137 9.646-2.094 31.428-1.675 60.79 0 0 0 31.068 0 21.838 28.524zm136.08-34.39c-5.855-4.69-72.364-2.1-122.7-2.1-33.555-.417-107.81-2.59-113.67 2.1-2.096 1.673-2.515 13.838-.837 18.033 1.675 4.197 6.71 4.617 6.71 7.55 0 2.938 3.354 23.07 12.583 29.364 15.393 10.492 52.01 14.26 70.463 4.193 18.454-10.066 20.136-40.684 20.136-40.684s3.697-.823 7.73-1.528c5.32.705 10.524 1.527 10.524 1.527s1.68 30.617 20.135 40.683c18.456 10.066 54.72 5.763 70.463-4.193 11.94-7.552 12.585-26.425 12.585-29.364 0-2.933 5.032-3.352 6.712-7.55 1.676-4.195 1.255-16.36-.84-18.033" fill="#025"/><path d="M90.17 512.818H401.6l-12.857 177.86-283.57-.714z"/><path d="M90.17 512.818H401.6l-151.25 90.984-145.18 86.16z" opacity=".326" fill="#666"/><path d="M278.625 600.964c0 16.736-13.568 30.303-30.304 30.303-16.735 0-30.302-13.566-30.302-30.303 0-16.736 13.567-30.303 30.303-30.303 16.74 0 30.305 13.568 30.305 30.304z" fill="#dd4814"/><path d="M227.716 596.92a4.045 4.045 0 1 0 0 8.09 4.045 4.045 0 0 0 0-8.09zm28.888 18.387a4.044 4.044 0 0 0 4.044 7.006 4.044 4.044 0 0 0-4.044-7.006zm-20.1-14.342a11.8 11.8 0 0 1 5.024-9.67l-2.957-4.953a17.606 17.606 0 0 0-7.268 10.217 5.67 5.67 0 0 1 2.095 4.405 5.668 5.668 0 0 1-2.095 4.406 17.603 17.603 0 0 0 7.27 10.22l2.957-4.956a11.8 11.8 0 0 1-5.027-9.67zm11.817-11.82c6.175 0 11.24 4.735 11.77 10.77l5.767-.083a17.52 17.52 0 0 0-5.222-11.4 5.668 5.668 0 0 1-4.85-.394 5.668 5.668 0 0 1-2.768-4.01 17.576 17.576 0 0 0-12.485 1.18l2.81 5.038a11.77 11.77 0 0 1 4.98-1.1zm0 23.638a11.77 11.77 0 0 1-4.977-1.1l-2.81 5.04a17.58 17.58 0 0 0 12.485 1.18 5.67 5.67 0 0 1 2.768-4.01 5.67 5.67 0 0 1 4.85-.394 17.52 17.52 0 0 0 5.222-11.4l-5.766-.086c-.53 6.038-5.595 10.77-11.77 10.77zm8.282-26.16a4.044 4.044 0 1 0 4.045-7.005 4.045 4.045 0 1 0-4.045 7.005z" fill="#fff"/><path d="M660.64 946.3c0 11.158-155.13 20.203-346.48 20.203-191.36 0-346.48-9.045-346.48-20.203s155.13-20.203 346.48-20.203c191.36 0 346.48 9.045 346.48 20.203z" transform="matrix(.57934 0 0 .86517 50.78 203.198)" filter="url(#c)"/><path d="M160.46 729.278h157.5l-1.428 266.07-12.857-.357-30-230-63.928-.713-35.357 231.07-12.857-.358z" stroke-opacity=".992" stroke="#e49d71" fill="#ecc7b1"/><path d="M317.36 959.638l.535 21.772s-2.093 9.692-8.318 9.062c-6.22-.636-8.86-7.772-8.86-7.772l-2.904-22.134zM180.938 961.968l-3.393 21.772s-2.093 9.692-8.318 9.062c-6.22-.636-8.86-7.772-8.86-7.772l-1.833-24.634z" fill-opacity=".992" fill="#333"/><path d="M321.64 701.418l-165.75 1.07c-1.3 95.224 2.99 181.29 2.68 267.88h19.84l33.132-203.38 61.664.88 25.414 202.5h20.425" fill="#005"/><path d="M298.56 981.028s10.62 6.593 21.972-.366c11.007 9.17 6.495 7.504 14.276 13.846 6.2 4.164 14.01 6.507 12.827 11.426v5.126s-15.75 6.592-25.27 1.832c-9.522-4.76-8.788-11.353-16.48-13.55-7.69-2.196-9.524-3.662-10.255-8.79-.73-5.128 2.2-8.06 2.93-9.524"/><path d="M298.23 981.528c1.156 5.842 3.605 11.957 7.024 17.554-7.143-2.092-8.91-3.62-9.62-8.601-.647-4.536 1.567-7.35 2.596-8.952"/><path d="M305.89 996.028c4.406 1.387 7.278 5.495 10.254 8.791 5.282 5.858 11.546 6.35 12.452 6.59 5.52 1.483 13.697-1.342 19.043-3.662.136-.03-.137.037 0 0v3.298s-15.75 6.592-25.27 1.832c-9.523-4.76-8.79-11.353-16.482-13.55-7.436-2.124-9.392-3.575-10.173-8.302 3.622 2.36 5.774 3.627 10.175 5.002" fill="#1a1a1a"/><path d="M327.5 986.328l1.054.858" fill="#fff"/><path d="M180.05 980.528s-10.62 6.593-21.972-.366c-11.007 9.17-6.495 7.504-14.276 13.846-6.2 4.164-14.01 6.507-12.827 11.426v5.126s15.75 6.592 25.27 1.832c9.522-4.76 8.788-11.353 16.48-13.55 7.69-2.196 9.524-3.662 10.255-8.79.73-5.128-2.2-8.06-2.93-9.524"/><path d="M180.39 981.028c-1.156 5.842-3.605 11.957-7.024 17.554 7.143-2.092 8.91-3.62 9.62-8.601.647-4.536-1.567-7.35-2.596-8.952"/><path d="M172.73 995.528c-4.406 1.387-7.278 5.495-10.254 8.791-5.282 5.858-11.546 6.352-12.452 6.59-5.52 1.483-13.697-1.342-19.043-3.662-.136-.03.137.037 0 0v3.298s15.75 6.592 25.27 1.832c9.523-4.76 8.79-11.353 16.482-13.55 7.436-2.124 9.392-3.575 10.173-8.302-3.622 2.36-5.774 3.627-10.175 5.002" fill="#1a1a1a"/><path d="M151.12 985.828l-1.053.858" fill="#fff"/><path fill="#782121" d="M74.286 689.25h335.71v25.714H74.286z"/><path fill="#782121" d="M92.857 706.39H110v315.71H92.857zM367.15 707.108h17.143v315.71H367.15z"/></svg>